<svg width="1149" height="200" viewBox="0 0 1149 200" fill="none" xmlns="http://www.w3.org/2000/svg">
<rect x="449" width="200" height="200" rx="20" fill="#8DFF9C"/>
<rect x="699" width="200" height="200" rx="20" fill="#8DFF9C"/>
<rect x="949" width="200" height="200" rx="20" fill="#8DFF9C"/>
<path d="M649 100H699" stroke="white" stroke-width="20"/>
<path d="M899 100H949" stroke="white" stroke-width="20"/>
<path d="M41.0156 60.9883V117.043H69.043C72.8841 117.043 76.4974 116.327 79.8828 114.895C83.2682 113.397 86.2305 111.379 88.7695 108.84C91.3086 106.301 93.2943 103.339 94.7266 99.9531C96.224 96.5026 96.9727 92.8568 96.9727 89.0156C96.9727 85.1745 96.224 81.5612 94.7266 78.1758C93.2943 74.7253 91.3086 71.7305 88.7695 69.1914C86.2305 66.6523 83.2682 64.6667 79.8828 63.2344C76.4974 61.737 72.8841 60.9883 69.043 60.9883H41.0156ZM41.0156 173H12.9883V32.9609H69.043C74.1862 32.9609 79.1341 33.6445 83.8867 35.0117C88.6393 36.3138 93.0664 38.2018 97.168 40.6758C101.335 43.0846 105.111 46.0143 108.496 49.4648C111.947 52.8503 114.876 56.6263 117.285 60.793C119.759 64.9596 121.647 69.4193 122.949 74.1719C124.316 78.9245 125 83.8724 125 89.0156C125 96.6979 123.535 103.957 120.605 110.793C117.676 117.564 113.672 123.488 108.594 128.566C103.516 133.645 97.5586 137.648 90.7227 140.578C83.9518 143.508 76.7253 144.973 69.043 144.973H41.0156V173ZM189.332 173H162.672V26.8086H189.332V73C192.522 70.5911 195.81 68.8984 199.195 67.9219C202.581 66.8802 206.031 66.3594 209.547 66.3594C215.992 66.3594 222.047 67.5964 227.711 70.0703C233.375 72.4792 238.29 75.832 242.457 80.1289C246.689 84.3607 250.009 89.3411 252.418 95.0703C254.892 100.734 256.129 106.789 256.129 113.234V173H229.273V113.234H229.469C229.469 110.5 228.948 107.928 227.906 105.52C226.865 103.046 225.432 100.897 223.609 99.0742C221.786 97.2513 219.671 95.819 217.262 94.7773C214.853 93.7357 212.281 93.2148 209.547 93.2148C206.747 93.2148 204.111 93.7357 201.637 94.7773C199.163 95.819 197.014 97.2513 195.191 99.0742C193.368 100.897 191.936 103.046 190.895 105.52C189.853 107.928 189.332 110.5 189.332 113.234V173ZM400.441 173H393.996L383.645 158.645C381.105 160.923 378.404 163.072 375.539 165.09C372.74 167.043 369.777 168.768 366.652 170.266C363.527 171.698 360.305 172.837 356.984 173.684C353.729 174.53 350.409 174.953 347.023 174.953C339.667 174.953 332.733 173.716 326.223 171.242C319.777 168.768 314.113 165.188 309.23 160.5C304.413 155.747 300.604 149.953 297.805 143.117C295.005 136.281 293.605 128.501 293.605 119.777C293.605 111.639 295.005 104.185 297.805 97.4141C300.604 90.5781 304.413 84.7188 309.23 79.8359C314.113 74.9531 319.777 71.1771 326.223 68.5078C332.733 65.7734 339.667 64.4062 347.023 64.4062C350.409 64.4062 353.762 64.8294 357.082 65.6758C360.402 66.5221 363.625 67.694 366.75 69.1914C369.875 70.6888 372.837 72.4466 375.637 74.4648C378.501 76.4831 381.171 78.6641 383.645 81.0078L393.996 68.6055H400.441V173ZM373.586 119.777C373.586 116.132 372.87 112.616 371.438 109.23C370.07 105.78 368.182 102.753 365.773 100.148C363.365 97.4792 360.533 95.3633 357.277 93.8008C354.087 92.1732 350.669 91.3594 347.023 91.3594C343.378 91.3594 339.927 91.9779 336.672 93.2148C333.482 94.4518 330.682 96.2747 328.273 98.6836C325.93 101.092 324.074 104.087 322.707 107.668C321.34 111.184 320.656 115.22 320.656 119.777C320.656 124.335 321.34 128.404 322.707 131.984C324.074 135.5 325.93 138.462 328.273 140.871C330.682 143.28 333.482 145.103 336.672 146.34C339.927 147.577 343.378 148.195 347.023 148.195C350.669 148.195 354.087 147.414 357.277 145.852C360.533 144.224 363.365 142.108 365.773 139.504C368.182 136.835 370.07 133.807 371.438 130.422C372.87 126.971 373.586 123.423 373.586 119.777Z" fill="white"/>
<path d="M604.957 173H574.977L520.973 80.8125V173H492.945V32.9609H522.926L576.93 125.246V32.9609H604.957V173Z" fill="black"/>
<path d="M783.766 173H755.738V32.9609H853.785V60.9883H783.766V89.0156H825.758V117.043H783.766V173Z" fill="black"/>
<path d="M1062.96 173H1035.04V60.9883H992.945V32.9609H1104.96V60.9883H1062.96V173Z" fill="black"/>
</svg>
